HIERARCHY
ROOT Hips
{
	OFFSET 0.000000 0.000000 0.000000
	CHANNELS 6 Xposition Yposition Zposition Zrotation Yrotation Xrotation 
	JOINT LowerBack
	{
		OFFSET 0.000000 0.000000 0.000000
		CHANNELS 3 Zrotation Yrotation Xrotation
		JOINT Spine
		{
			OFFSET 0.028270 2.035590 -0.193380
			CHANNELS 3 Zrotation Yrotation Xrotation
			JOINT Spine1
			{
				OFFSET 0.056720 2.048850 -0.042750
				CHANNELS 3 Zrotation Yrotation Xrotation
				JOINT Neck
				{
					OFFSET 0.000000 0.000000 0.000000
					CHANNELS 3 Zrotation Yrotation Xrotation
					JOINT Neck1
					{
						OFFSET -0.054170 1.746240 0.172020
						CHANNELS 3 Zrotation Yrotation Xrotation
						JOINT Head
						{
							OFFSET 0.104070 1.761360 -0.123970
							CHANNELS 3 Zrotation Yrotation Xrotation
							End Site
							{
								OFFSET 0.000000 0.000000 0.000000
							}
						}
					}
				}
				JOINT LeftShoulder
				{
					OFFSET 0.000000 0.000000 0.000000
					CHANNELS 3 Zrotation Yrotation Xrotation
					JOINT LeftArm
					{
						OFFSET 3.362410 1.200890 -0.311210
						CHANNELS 3 Zrotation Yrotation Xrotation
						JOINT LeftForeArm
						{
							OFFSET 4.983000 -0.000000 -0.000000
							CHANNELS 3 Zrotation Yrotation Xrotation
							JOINT LeftHand
							{
								OFFSET 3.483560 -0.000000 -0.000000
								CHANNELS 3 Zrotation Yrotation Xrotation
								JOINT LeftFingerBase
								{
									OFFSET 0.000000 0.000000 0.000000
									CHANNELS 3 Zrotation Yrotation Xrotation
									JOINT LeftHandIndex1
									{
										OFFSET 0.715260 -0.000000 -0.000000
										CHANNELS 3 Zrotation Yrotation Xrotation
										End Site
										{
											OFFSET 0.000000 0.000000 0.000000
										}
									}
								}
								JOINT LThumb
								{
									OFFSET 0.000000 0.000000 0.000000
									CHANNELS 3 Zrotation Yrotation Xrotation
									End Site
									{
										OFFSET 0.000000 0.000000 0.000000
									}
								}
							}
						}
					}
				}
				JOINT RightShoulder
				{
					OFFSET 0.000000 0.000000 0.000000
					CHANNELS 3 Zrotation Yrotation Xrotation
					JOINT RightArm
					{
						OFFSET -3.136600 1.374050 -0.404650
						CHANNELS 3 Zrotation Yrotation Xrotation
						JOINT RightForeArm
						{
							OFFSET -5.241900 -0.000000 -0.000000
							CHANNELS 3 Zrotation Yrotation Xrotation
							JOINT RightHand
							{
								OFFSET -3.444170 -0.000000 -0.000000
								CHANNELS 3 Zrotation Yrotation Xrotation
								JOINT RightFingerBase
								{
									OFFSET 0.000000 0.000000 0.000000
									CHANNELS 3 Zrotation Yrotation Xrotation
									JOINT RightHandIndex1
									{
										OFFSET -0.622530 -0.000000 -0.000000
										CHANNELS 3 Zrotation Yrotation Xrotation
										End Site
										{
											OFFSET 0.000000 0.000000 0.000000
										}
									}
								}
								JOINT RThumb
								{
									OFFSET 0.000000 0.000000 0.000000
									CHANNELS 3 Zrotation Yrotation Xrotation
									End Site
									{
										OFFSET 0.000000 0.000000 0.000000
									}
								}
							}
						}
					}
				}
			}
		}
	}
}
}
MOTION
Frames: 9
Frame Time: 0.008333
3.414167 17.237614 2.959485 -103.509591 -82.332041 144.419444 11.615150 -3.318601 -8.532118 1.777619 -4.561439 -4.512187 -7.386485 -4.612474 1.874053 12.469720 -15.229039 -13.998134 -2.709602 -0.109263 -2.007499 0.000000 0.000000 0.000000 4.028118 7.014326 3.195858 -42.473817 3.565821 -36.326905 -1.145068 -59.357752 -0.081435 21.737675 -4.268400 -0.880352 -0.232204 0.273303 0.000000 0.000000 0.000000 0.000000 0.000000 0.000000 0.000000 15.354399 -13.329478 2.452008 55.511348 0.228744 -33.797262 1.114688 55.527432 -0.028875 -14.182499 10.841559 -1.405279 0.191933 -0.275233 -0.000000 0.000000 0.000000 0.000000 0.000000 0.000000 0.000000 
3.417517 17.244093 2.957242 -103.833371 -82.439645 144.353729 11.219285 -3.391937 -8.366285 1.694850 -4.601151 -4.453589 -7.370399 -4.653116 1.889080 12.270910 -15.126346 -13.793496 -2.744055 -0.115503 -1.940125 0.000000 0.000000 0.000000 4.238440 6.855004 3.141265 -42.395806 3.258166 -36.492183 -1.097650 -60.606984 -0.085323 21.717695 -4.187421 -0.866093 -0.237978 0.284612 0.000000 0.000000 0.000000 0.000000 0.000000 0.000000 0.000000 15.298078 -13.275845 2.417155 55.424714 0.482832 -33.405413 1.127880 54.881809 -0.028909 -14.188259 10.836246 -1.404883 0.190872 -0.274318 -0.000000 0.000000 0.000000 0.000000 0.000000 0.000000 0.000000 
3.418414 17.251706 2.955884 -103.708702 -82.595660 143.768114 10.819981 -3.475880 -8.200482 1.614531 -4.650063 -4.397081 -7.342413 -4.702998 1.898562 12.074734 -15.033297 -13.598005 -2.772150 -0.121022 -1.875222 0.000000 0.000000 0.000000 4.452048 6.691749 3.086846 -42.393783 2.949332 -36.562246 -1.051713 -61.879009 -0.089130 21.642163 -4.081360 -0.844932 -0.243431 0.296066 0.000000 0.000000 0.000000 0.000000 0.000000 0.000000 0.000000 15.209302 -13.222375 2.383392 55.310116 0.651511 -32.951073 1.139914 54.394766 -0.028844 -14.184255 10.840896 -1.404984 0.190182 -0.273651 -0.000000 0.000000 0.000000 0.000000 0.000000 0.000000 0.000000 
3.417203 17.260136 2.954493 -103.253596 -82.791837 142.784427 10.403481 -3.565476 -8.025520 1.532494 -4.701903 -4.340927 -7.306016 -4.755963 1.901559 11.887956 -14.946511 -13.412835 -2.793430 -0.125741 -1.813431 0.000000 0.000000 0.000000 4.664014 6.537767 3.032217 -42.430010 2.615554 -36.541753 -1.007369 -63.144983 -0.092862 21.522961 -3.954363 -0.818167 -0.248583 0.307624 0.000000 0.000000 0.000000 0.000000 0.000000 0.000000 0.000000 15.092760 -13.164209 2.350970 55.186825 0.726785 -32.452850 1.149441 54.078669 -0.028704 -14.171787 10.856905 -1.405679 0.189761 -0.273234 -0.000000 0.000000 0.000000 0.000000 0.000000 0.000000 0.000000 
3.413964 17.268945 2.952625 -102.540909 -83.018162 141.483316 9.967618 -3.654008 -7.843675 1.447545 -4.750109 -4.285859 -7.263176 -4.805454 1.898212 11.710233 -14.867129 -13.238093 -2.806962 -0.129588 -1.754759 0.000000 0.000000 0.000000 4.861206 6.400557 2.976537 -42.471463 2.241811 -36.433717 -0.964829 -64.379425 -0.096474 21.375208 -3.814818 -0.788003 -0.253409 0.319102 0.000000 0.000000 0.000000 0.000000 0.000000 0.000000 0.000000 14.944566 -13.101265 2.320205 55.070309 0.705316 -31.931703 1.155704 53.934686 -0.028513 -14.151814 10.885233 -1.407272 0.189547 -0.273107 -0.000000 0.000000 0.000000 0.000000 0.000000 0.000000 0.000000 
3.408493 17.277734 2.949978 -101.633683 -83.265090 139.940169 9.512695 -3.734912 -7.662607 1.359317 -4.788752 -4.233373 -7.215028 -4.845496 1.890116 11.539080 -14.797688 -13.073194 -2.811828 -0.132516 -1.698886 0.000000 0.000000 0.000000 5.032279 6.287321 2.918699 -42.491970 1.817018 -36.240196 -0.924300 -65.558591 -0.099924 21.214485 -3.673609 -0.757539 -0.257922 0.330335 0.000000 0.000000 0.000000 0.000000 0.000000 0.000000 0.000000 14.759935 -13.035497 2.291036 54.970599 0.590650 -31.408564 1.158394 53.951145 -0.028290 -14.124972 10.925434 -1.409662 0.189502 -0.273313 -0.000000 0.000000 0.000000 0.000000 0.000000 0.000000 0.000000 
3.400751 17.286280 2.946188 -100.629211 -83.524742 138.262678 9.034485 -3.803089 -7.486180 1.266199 -4.812888 -4.183853 -7.163550 -4.871087 1.878640 11.375344 -14.739258 -12.916731 -2.808125 -0.134571 -1.645339 0.000000 0.000000 0.000000 5.172894 6.200808 2.857795 -42.472526 1.338357 -35.968970 -0.885536 -66.664697 -0.103211 21.056436 -3.539465 -0.728677 -0.262167 0.341203 0.000000 0.000000 0.000000 0.000000 0.000000 0.000000 0.000000 14.542075 -12.968179 2.263366 54.895016 0.394969 -30.904758 1.157383 54.106396 -0.028056 -14.092125 10.975713 -1.412849 0.189560 -0.273846 -0.000000 0.000000 0.000000 0.000000 0.000000 0.000000 0.000000 
3.390537 17.294398 2.941112 -99.589135 -83.790917 136.524899 8.534193 -3.854624 -7.322266 1.168158 -4.819261 -4.138329 -7.109592 -4.878883 1.866062 11.217391 -14.693819 -12.767104 -2.795930 -0.135811 -1.593508 0.000000 0.000000 0.000000 5.280105 6.142798 2.792826 -42.404021 0.807433 -35.627433 -0.848395 -67.683993 -0.106330 20.915199 -3.420895 -0.703517 -0.266200 0.351605 0.000000 0.000000 0.000000 0.000000 0.000000 0.000000 0.000000 14.292096 -12.902188 2.236854 54.845075 0.134782 -30.438572 1.152966 54.370796 -0.027837 -14.054704 11.032775 -1.416434 0.189691 -0.274700 -0.000000 0.000000 0.000000 0.000000 0.000000 0.000000 0.000000 
3.377897 17.302033 2.934792 -98.565906 -84.058745 134.786750 8.014653 -3.887441 -7.176755 1.065594 -4.806386 -4.097346 -7.053869 -4.867309 1.854356 11.064111 -14.662592 -12.622460 -2.775801 -0.136337 -1.542725 0.000000 0.000000 0.000000 5.354238 6.112022 2.723033 -42.284362 0.232075 -35.226003 -0.812636 -68.608602 -0.109311 20.802319 -3.323778 -0.683561 -0.270065 0.361476 0.000000 0.000000 0.000000 0.000000 0.000000 0.000000 0.000000 14.013378 -12.840174 2.211071 54.819498 -0.169762 -30.024606 1.145694 54.711006 -0.027652 -14.013945 11.092549 -1.420018 0.189854 -0.275843 -0.000000 0.000000 0.000000 0.000000 0.000000 0.000000 0.000000 
